<mxfile host="65bd71144e">
    <diagram id="1eEwsLm97YfKVC_2imgf" name="Page-1">
        <mxGraphModel dx="886" dy="1125" grid="1" gridSize="10" guides="1" tooltips="1" connect="1" arrows="1" fold="1" page="0" pageScale="1" pageWidth="827" pageHeight="1169" math="0" shadow="0">
            <root>
                <mxCell id="0"/>
                <mxCell id="1" parent="0"/>
                <mxCell id="nC8xY-jUYGHmh64Gt1b1-9" style="rounded=0;orthogonalLoop=1;jettySize=auto;html=1;entryX=0.017;entryY=0.69;entryDx=0;entryDy=0;endArrow=none;endFill=0;fontSize=15;fontStyle=1;labelBackgroundColor=none;entryPerimeter=0;exitX=1;exitY=0.3333333333333333;exitDx=0;exitDy=0;exitPerimeter=0;" parent="1" source="nC8xY-jUYGHmh64Gt1b1-1" target="nC8xY-jUYGHmh64Gt1b1-4" edge="1">
                    <mxGeometry relative="1" as="geometry">
                        <mxPoint x="-40" y="240" as="sourcePoint"/>
                    </mxGeometry>
                </mxCell>
                <mxCell id="nC8xY-jUYGHmh64Gt1b1-10" style="edgeStyle=none;rounded=0;orthogonalLoop=1;jettySize=auto;html=1;entryX=0;entryY=0.5;entryDx=0;entryDy=0;endArrow=none;endFill=0;fontSize=15;fontStyle=1;labelBackgroundColor=none;" parent="1" source="nC8xY-jUYGHmh64Gt1b1-1" target="nC8xY-jUYGHmh64Gt1b1-5" edge="1">
                    <mxGeometry relative="1" as="geometry">
                        <mxPoint x="-20" y="253" as="sourcePoint"/>
                    </mxGeometry>
                </mxCell>
                <mxCell id="nC8xY-jUYGHmh64Gt1b1-1" value="Администратор" style="shape=umlActor;verticalLabelPosition=bottom;verticalAlign=top;html=1;outlineConnect=0;fontSize=15;fontStyle=1;labelBackgroundColor=none;fillColor=none;" parent="1" vertex="1">
                    <mxGeometry x="-120" y="200" width="80" height="160" as="geometry"/>
                </mxCell>
                <mxCell id="nC8xY-jUYGHmh64Gt1b1-2" value="" style="swimlane;startSize=0;fontSize=15;fontStyle=1;labelBackgroundColor=none;" parent="1" vertex="1">
                    <mxGeometry x="20" y="-120" width="760" height="840" as="geometry"/>
                </mxCell>
                <mxCell id="nC8xY-jUYGHmh64Gt1b1-3" value="&lt;font style=&quot;font-size: 21px&quot;&gt;Библиотечная система для бронирования книг&lt;/font&gt;" style="text;html=1;align=center;verticalAlign=middle;resizable=0;points=[];autosize=1;strokeColor=none;fontSize=15;fontStyle=1;labelBackgroundColor=none;" parent="nC8xY-jUYGHmh64Gt1b1-2" vertex="1">
                    <mxGeometry x="160" y="10" width="520" height="30" as="geometry"/>
                </mxCell>
                <mxCell id="nC8xY-jUYGHmh64Gt1b1-27" value="&amp;lt;&amp;lt;extend&amp;gt;&amp;gt;" style="edgeStyle=none;rounded=0;orthogonalLoop=1;jettySize=auto;html=1;exitX=0.68;exitY=0.03;exitDx=0;exitDy=0;dashed=1;endArrow=none;endFill=0;startArrow=classic;startFill=1;fontSize=15;fontStyle=1;labelBackgroundColor=none;exitPerimeter=0;entryX=0.233;entryY=0.97;entryDx=0;entryDy=0;entryPerimeter=0;" parent="nC8xY-jUYGHmh64Gt1b1-2" source="nC8xY-jUYGHmh64Gt1b1-4" target="nC8xY-jUYGHmh64Gt1b1-26" edge="1">
                    <mxGeometry relative="1" as="geometry"/>
                </mxCell>
                <mxCell id="nC8xY-jUYGHmh64Gt1b1-4" value="Просмотр&lt;br&gt;данных&lt;br&gt;пользователей" style="ellipse;whiteSpace=wrap;html=1;fontSize=15;fontStyle=1;labelBackgroundColor=none;fillColor=none;" parent="nC8xY-jUYGHmh64Gt1b1-2" vertex="1">
                    <mxGeometry x="140" y="250" width="150" height="100" as="geometry"/>
                </mxCell>
                <mxCell id="nC8xY-jUYGHmh64Gt1b1-5" value="Просмотр&lt;br&gt;данных&lt;br&gt;библиотек" style="ellipse;whiteSpace=wrap;html=1;fontSize=15;fontStyle=1;labelBackgroundColor=none;fillColor=none;" parent="nC8xY-jUYGHmh64Gt1b1-2" vertex="1">
                    <mxGeometry x="90" y="420" width="150" height="100" as="geometry"/>
                </mxCell>
                <mxCell id="nC8xY-jUYGHmh64Gt1b1-19" value="Регистрация администратора" style="ellipse;whiteSpace=wrap;html=1;fontSize=15;fontStyle=1;labelBackgroundColor=none;fillColor=none;" parent="nC8xY-jUYGHmh64Gt1b1-2" vertex="1">
                    <mxGeometry x="570" y="70" width="150" height="100" as="geometry"/>
                </mxCell>
                <mxCell id="nC8xY-jUYGHmh64Gt1b1-28" value="&amp;lt;&amp;lt;include&amp;gt;&amp;gt;" style="edgeStyle=none;rounded=0;orthogonalLoop=1;jettySize=auto;html=1;exitX=1;exitY=0.5;exitDx=0;exitDy=0;entryX=0;entryY=0.5;entryDx=0;entryDy=0;dashed=1;startArrow=none;startFill=0;endArrow=classic;endFill=1;fontSize=15;fontStyle=1;labelBackgroundColor=none;" parent="nC8xY-jUYGHmh64Gt1b1-2" source="nC8xY-jUYGHmh64Gt1b1-26" target="nC8xY-jUYGHmh64Gt1b1-19" edge="1">
                    <mxGeometry relative="1" as="geometry"/>
                </mxCell>
                <mxCell id="nC8xY-jUYGHmh64Gt1b1-26" value="Редактирование данных пользователей" style="ellipse;whiteSpace=wrap;html=1;fontSize=15;fontStyle=1;labelBackgroundColor=none;fillColor=none;" parent="nC8xY-jUYGHmh64Gt1b1-2" vertex="1">
                    <mxGeometry x="260" y="60" width="150" height="100" as="geometry"/>
                </mxCell>
                <mxCell id="nC8xY-jUYGHmh64Gt1b1-36" value="Просмотр&lt;br&gt;данных&lt;br&gt;книг" style="ellipse;whiteSpace=wrap;html=1;fontSize=15;fontStyle=1;labelBackgroundColor=none;fillColor=none;" parent="nC8xY-jUYGHmh64Gt1b1-2" vertex="1">
                    <mxGeometry x="90" y="580" width="150" height="100" as="geometry"/>
                </mxCell>
                <mxCell id="nC8xY-jUYGHmh64Gt1b1-51" value="&lt;span style=&quot;font-weight: 700&quot;&gt;&amp;lt;&amp;lt;extend&amp;gt;&amp;gt;&lt;/span&gt;" style="edgeStyle=none;rounded=0;orthogonalLoop=1;jettySize=auto;html=1;exitX=0;exitY=0;exitDx=0;exitDy=0;fontSize=15;startArrow=none;startFill=0;endArrow=classic;endFill=1;dashed=1;labelBackgroundColor=none;" parent="nC8xY-jUYGHmh64Gt1b1-2" source="nC8xY-jUYGHmh64Gt1b1-50" target="nC8xY-jUYGHmh64Gt1b1-36" edge="1">
                    <mxGeometry relative="1" as="geometry"/>
                </mxCell>
                <mxCell id="nC8xY-jUYGHmh64Gt1b1-54" value="&lt;span style=&quot;font-weight: 700&quot;&gt;&amp;lt;&amp;lt;include&amp;gt;&amp;gt;&lt;/span&gt;" style="edgeStyle=none;rounded=0;orthogonalLoop=1;jettySize=auto;html=1;exitX=1;exitY=0;exitDx=0;exitDy=0;entryX=0.079;entryY=0.81;entryDx=0;entryDy=0;dashed=1;fontSize=15;startArrow=none;startFill=0;endArrow=classic;endFill=1;labelBackgroundColor=none;entryPerimeter=0;" parent="nC8xY-jUYGHmh64Gt1b1-2" source="nC8xY-jUYGHmh64Gt1b1-50" target="nC8xY-jUYGHmh64Gt1b1-52" edge="1">
                    <mxGeometry relative="1" as="geometry">
                        <mxPoint x="562.324103970428" y="575.5918216416028" as="targetPoint"/>
                    </mxGeometry>
                </mxCell>
                <mxCell id="nC8xY-jUYGHmh64Gt1b1-55" value="&lt;span style=&quot;font-weight: 700&quot;&gt;&amp;lt;&amp;lt;include&amp;gt;&amp;gt;&lt;/span&gt;" style="edgeStyle=none;rounded=0;orthogonalLoop=1;jettySize=auto;html=1;exitX=1.007;exitY=0.6;exitDx=0;exitDy=0;dashed=1;fontSize=15;startArrow=none;startFill=0;endArrow=classic;endFill=1;labelBackgroundColor=none;exitPerimeter=0;entryX=-0.007;entryY=0.43;entryDx=0;entryDy=0;entryPerimeter=0;" parent="nC8xY-jUYGHmh64Gt1b1-2" source="nC8xY-jUYGHmh64Gt1b1-50" target="nC8xY-jUYGHmh64Gt1b1-53" edge="1">
                    <mxGeometry relative="1" as="geometry"/>
                </mxCell>
                <mxCell id="nC8xY-jUYGHmh64Gt1b1-50" value="Редактирование данных&lt;br&gt;книг" style="ellipse;whiteSpace=wrap;html=1;fontSize=15;fontStyle=1;labelBackgroundColor=none;fillColor=none;" parent="nC8xY-jUYGHmh64Gt1b1-2" vertex="1">
                    <mxGeometry x="290" y="710" width="150" height="100" as="geometry"/>
                </mxCell>
                <mxCell id="nC8xY-jUYGHmh64Gt1b1-52" value="Добавление&lt;br&gt;книги" style="ellipse;whiteSpace=wrap;html=1;fontSize=15;fontStyle=1;labelBackgroundColor=none;fillColor=none;" parent="nC8xY-jUYGHmh64Gt1b1-2" vertex="1">
                    <mxGeometry x="455" y="580" width="140" height="100" as="geometry"/>
                </mxCell>
                <mxCell id="nC8xY-jUYGHmh64Gt1b1-53" value="Удаление книги" style="ellipse;whiteSpace=wrap;html=1;fontSize=15;fontStyle=1;labelBackgroundColor=none;fillColor=none;" parent="nC8xY-jUYGHmh64Gt1b1-2" vertex="1">
                    <mxGeometry x="580" y="700" width="150" height="100" as="geometry"/>
                </mxCell>
                <mxCell id="owC4zcLg2hRnqhh_YX6K-1" value="Просмотр статистики системы" style="ellipse;whiteSpace=wrap;html=1;fontSize=15;fontStyle=1;labelBackgroundColor=none;fillColor=none;" parent="nC8xY-jUYGHmh64Gt1b1-2" vertex="1">
                    <mxGeometry x="50" y="70" width="150" height="100" as="geometry"/>
                </mxCell>
                <mxCell id="owC4zcLg2hRnqhh_YX6K-3" value="Редактирование&lt;br&gt;списка выданных&lt;br&gt;читателю книг" style="ellipse;whiteSpace=wrap;html=1;fontSize=15;fontStyle=1;labelBackgroundColor=none;fillColor=none;" parent="nC8xY-jUYGHmh64Gt1b1-2" vertex="1">
                    <mxGeometry x="390" y="200" width="150" height="100" as="geometry"/>
                </mxCell>
                <mxCell id="owC4zcLg2hRnqhh_YX6K-4" value="&amp;lt;&amp;lt;include&amp;gt;&amp;gt;" style="edgeStyle=none;rounded=0;orthogonalLoop=1;jettySize=auto;html=1;entryX=0.373;entryY=-0.02;entryDx=0;entryDy=0;dashed=1;startArrow=none;startFill=0;endArrow=classic;endFill=1;fontSize=15;fontStyle=1;labelBackgroundColor=none;exitX=0.707;exitY=0.98;exitDx=0;exitDy=0;exitPerimeter=0;entryPerimeter=0;" parent="nC8xY-jUYGHmh64Gt1b1-2" source="nC8xY-jUYGHmh64Gt1b1-26" target="owC4zcLg2hRnqhh_YX6K-3" edge="1">
                    <mxGeometry relative="1" as="geometry">
                        <mxPoint x="470" y="230" as="sourcePoint"/>
                        <mxPoint x="633.1500000000001" y="228.5000000000001" as="targetPoint"/>
                    </mxGeometry>
                </mxCell>
                <mxCell id="owC4zcLg2hRnqhh_YX6K-5" value="&amp;lt;&amp;lt;extend&amp;gt;&amp;gt;" style="edgeStyle=none;rounded=0;orthogonalLoop=1;jettySize=auto;html=1;exitX=1;exitY=0.39;exitDx=0;exitDy=0;dashed=1;endArrow=none;endFill=0;startArrow=classic;startFill=1;fontSize=15;fontStyle=1;labelBackgroundColor=none;entryX=0.013;entryY=0.61;entryDx=0;entryDy=0;entryPerimeter=0;exitPerimeter=0;" parent="nC8xY-jUYGHmh64Gt1b1-2" source="nC8xY-jUYGHmh64Gt1b1-5" target="owC4zcLg2hRnqhh_YX6K-10" edge="1">
                    <mxGeometry relative="1" as="geometry">
                        <mxPoint x="267.778658002401" y="564.4759032676147" as="sourcePoint"/>
                    </mxGeometry>
                </mxCell>
                <mxCell id="owC4zcLg2hRnqhh_YX6K-6" value="Добавление&lt;br&gt;библиотеки" style="ellipse;whiteSpace=wrap;html=1;fontSize=15;fontStyle=1;labelBackgroundColor=none;fillColor=none;" parent="nC8xY-jUYGHmh64Gt1b1-2" vertex="1">
                    <mxGeometry x="580" y="320" width="150" height="100" as="geometry"/>
                </mxCell>
                <mxCell id="owC4zcLg2hRnqhh_YX6K-7" value="Удаление библиотеки" style="ellipse;whiteSpace=wrap;html=1;fontSize=15;fontStyle=1;labelBackgroundColor=none;fillColor=none;" parent="nC8xY-jUYGHmh64Gt1b1-2" vertex="1">
                    <mxGeometry x="575" y="460" width="150" height="100" as="geometry"/>
                </mxCell>
                <mxCell id="owC4zcLg2hRnqhh_YX6K-8" value="&amp;lt;&amp;lt;include&amp;gt;&amp;gt;" style="edgeStyle=none;rounded=0;orthogonalLoop=1;jettySize=auto;html=1;entryX=0;entryY=0.5;entryDx=0;entryDy=0;dashed=1;startArrow=none;startFill=0;endArrow=classic;endFill=1;fontSize=15;fontStyle=1;labelBackgroundColor=none;exitX=0.96;exitY=0.29;exitDx=0;exitDy=0;exitPerimeter=0;" parent="nC8xY-jUYGHmh64Gt1b1-2" source="owC4zcLg2hRnqhh_YX6K-10" target="owC4zcLg2hRnqhh_YX6K-6" edge="1">
                    <mxGeometry relative="1" as="geometry"/>
                </mxCell>
                <mxCell id="owC4zcLg2hRnqhh_YX6K-9" value="&amp;lt;&amp;lt;include&amp;gt;&amp;gt;" style="edgeStyle=none;rounded=0;orthogonalLoop=1;jettySize=auto;html=1;exitX=0.953;exitY=0.77;exitDx=0;exitDy=0;entryX=0.069;entryY=0.25;entryDx=0;entryDy=0;dashed=1;startArrow=none;startFill=0;endArrow=classic;endFill=1;fontSize=15;fontStyle=1;labelBackgroundColor=none;entryPerimeter=0;exitPerimeter=0;" parent="nC8xY-jUYGHmh64Gt1b1-2" source="owC4zcLg2hRnqhh_YX6K-10" target="owC4zcLg2hRnqhh_YX6K-7" edge="1">
                    <mxGeometry relative="1" as="geometry"/>
                </mxCell>
                <mxCell id="owC4zcLg2hRnqhh_YX6K-10" value="Редактирование данных&lt;br&gt;библиотек" style="ellipse;whiteSpace=wrap;html=1;fontSize=15;fontStyle=1;labelBackgroundColor=none;fillColor=none;" parent="nC8xY-jUYGHmh64Gt1b1-2" vertex="1">
                    <mxGeometry x="330" y="380" width="150" height="100" as="geometry"/>
                </mxCell>
                <mxCell id="nC8xY-jUYGHmh64Gt1b1-49" style="edgeStyle=none;rounded=0;orthogonalLoop=1;jettySize=auto;html=1;fontSize=15;startArrow=none;startFill=0;endArrow=none;endFill=0;labelBackgroundColor=none;" parent="1" source="nC8xY-jUYGHmh64Gt1b1-36" target="nC8xY-jUYGHmh64Gt1b1-1" edge="1">
                    <mxGeometry relative="1" as="geometry"/>
                </mxCell>
                <mxCell id="owC4zcLg2hRnqhh_YX6K-2" value="" style="endArrow=none;html=1;labelBackgroundColor=none;entryX=0;entryY=1;entryDx=0;entryDy=0;" parent="1" target="owC4zcLg2hRnqhh_YX6K-1" edge="1">
                    <mxGeometry width="50" height="50" relative="1" as="geometry">
                        <mxPoint x="-40" y="230" as="sourcePoint"/>
                        <mxPoint x="130" y="130" as="targetPoint"/>
                    </mxGeometry>
                </mxCell>
            </root>
        </mxGraphModel>
    </diagram>
</mxfile>